<svg width="215" height="182" viewBox="0 0 215 182" fill="none" xmlns="http://www.w3.org/2000/svg">
<path d="M33.4725 180.732C33.4725 180.732 1.711 174.448 0.0916952 152.248C-1.77208 126.697 25.4564 126.003 19.9285 107.894C11.5325 80.3902 25.1728 66.6445 49.2205 67.7066C69.4977 68.6021 86.6031 84.4871 97.4512 70.8315C109.151 56.1039 131.035 45.2221 152.692 54.344C174.349 63.4658 171.159 93.1077 186.136 99.4061C201.114 105.704 217.333 122.317 214.721 145.297C212.27 166.857 192.393 181.181 173.975 180.964C164.949 180.858 129.916 181.083 98.4334 180.964C65.672 180.841 33.4725 180.732 33.4725 180.732Z" fill="#19C43D" fill-opacity="0.2"/>
<path d="M175.061 5H39V181.314H175.061V5Z" stroke="#2C9141" stroke-miterlimit="10"/>
<path d="M72.5097 60.6074C72.5097 60.6074 70.4054 45.8083 72.5097 41.7754C74.6139 37.7425 81.3273 31.2554 81.3273 31.2554L85.1339 22.8396L90.2278 25.2938C90.2278 25.2938 86.6398 33.1841 88.0783 39.1457C88.0783 39.1457 87.0626 32.132 91.4466 28.2746L96.8816 30.9043C96.8816 30.9043 94.179 34.2362 95.4431 40.5478C95.4431 40.5478 96.005 34.7617 98.9858 31.9564L103.395 34.4106C103.395 34.4106 96.7072 40.1967 99.3369 44.2296C101.967 48.2625 106.701 51.155 102.23 55.4518C97.64 59.8622 94.2243 53.9613 90.2289 55.539C86.2324 57.1166 89.1679 67.0239 89.1679 67.0239L78.1213 78.5088C78.1213 78.5088 71.282 65.2376 72.5097 60.6074Z" fill="#19C43D" fill-opacity="0.2" stroke="#2C9141" stroke-miterlimit="10"/>
<path d="M69.5289 83.331C69.5289 83.331 61.8142 69.1292 62.8663 55.2773C63.9184 41.4254 75.5016 19.6843 75.5016 19.6843L82.1035 22.8407L78.9979 30.0299L84.434 28.8022V36.3415C84.434 36.3415 72.2371 38.6212 73.6016 53.6997C74.9661 68.7781 83.149 79.4737 83.149 79.4737L69.5289 83.331Z" fill="#19C43D" fill-opacity="0.2" stroke="#2C9141" stroke-miterlimit="10"/>
<path d="M52.1707 94.2022C52.1707 94.2022 46.9102 87.5395 50.0665 73.8632C53.2229 60.1868 66.5183 57.3065 71.2523 64.2396C75.9862 71.1727 75.4905 71.7589 80.7511 75.9674C86.0105 80.1747 53.5993 96.865 52.1707 94.2022Z" fill="#2C9141"/>
<path d="M108.454 69.4792C108.454 69.4792 113.539 69.8303 117.572 71.2324L117.045 77.194L113.012 76.7557L113.538 79.1734L118.71 80.7003L117.833 85.2587L113.011 84.5577V86.4863L117.22 87.6257L116.343 92.3596C116.343 92.3596 112.924 91.0448 112.924 91.3075C112.924 91.5703 113.209 95.8659 109.384 100.074C105.56 104.283 87.1499 94.0256 88.1136 82.8034C89.0785 71.5834 104.859 68.6026 108.454 69.4792Z" fill="#2C9141"/>
<path d="M49.1314 108.228C49.1314 108.228 48.1963 93.968 55.9111 85.6682C63.6258 77.3694 69.5874 76.2003 73.4448 74.7971C77.3022 73.3939 79.4075 72.9269 83.1479 69.0695C86.8882 65.2122 88.6414 58.4325 112.37 66.4983V71.7589C112.37 71.7589 97.9923 69.8887 97.2912 80.2917C96.5902 90.6947 105.591 91.2798 110.499 97.8254C115.409 104.371 118.206 117.112 109.386 134.062C100.565 151.012 91.2126 154.868 88.0563 155.219C84.8999 155.57 73.0937 152.765 62.1067 138.503C51.1186 124.243 49.3655 116.761 49.1314 108.228Z" fill="#19C43D" fill-opacity="0.2" stroke="#2C9141" stroke-miterlimit="10"/>
<path d="M75.0654 100.769C73.1025 98.4857 70.6947 96.2766 68.6424 94.3931C67.0879 92.9668 65.7455 91.7358 64.8799 90.751C61.6242 87.046 63.8764 78.5861 63.8963 78.5088L63.0142 79.1734C62.9314 79.4991 61.0325 87.1873 64.4759 91.1065C65.135 91.8573 66.0546 92.7371 67.1288 93.7318C67.2701 94.2364 68.1588 97.6853 67.1089 101.257C65.9784 105.099 60.8272 109.027 60.7753 109.066L61.0998 109.496C61.2953 109.348 65.4463 106.175 67.1442 102.622C69.4141 106.663 67.6698 109.935 67.651 109.968L68.1213 110.231C68.2063 110.079 70.1482 106.479 67.4125 102.009C67.4898 101.809 67.566 101.61 67.6245 101.409C68.479 98.5044 68.1202 95.7478 67.8387 94.3876C67.9844 94.5212 68.129 94.6548 68.2781 94.7917C72.587 98.7429 78.4867 104.156 78.3178 108.454C78.2129 111.118 77.5075 114.228 76.621 117.045C74.2904 116.396 72.8177 117.35 70.4849 119.06C68.2173 120.721 65.3072 120.243 65.2785 120.239L65.1858 120.769C65.2332 120.778 65.6704 120.851 66.3284 120.851C67.4622 120.851 69.2485 120.633 70.8018 119.494C73.0529 117.844 74.3688 116.987 76.4565 117.556C75.4121 120.752 74.1613 123.5 73.3399 124.674L73.7804 124.983C75.4342 122.62 78.617 114.559 78.8555 108.474C78.9438 106.222 77.5141 103.734 75.517 101.307C77.7128 101.351 85.952 102.05 89.7409 109.924L90.2256 109.691C85.9674 100.838 76.2798 100.743 75.0654 100.769Z" fill="#2C9141"/>
<path d="M107.261 112.707C107.474 112.291 107.689 111.864 107.906 111.415C113.194 100.485 102.884 90.5479 102.777 90.4541L100.326 89.179C100.431 89.2706 112.531 100.623 107.423 111.181C104.349 117.533 101.687 120.401 99.3391 122.93C97.6588 124.74 96.2081 126.303 94.891 128.793C94.4671 129.593 94.1127 130.349 93.8058 131.07C93.2373 131.242 90.5236 132.025 87.301 132.332C83.5077 132.693 81.5525 136.87 81.4708 137.047L81.9599 137.271C81.9787 137.231 83.8698 133.2 87.3518 132.869C90.1118 132.606 92.513 131.996 93.5453 131.707C92.608 134.084 92.2216 136.063 91.8727 137.864C91.5824 139.361 91.3086 140.775 90.7566 142.237L91.26 142.427C91.8285 140.922 92.1068 139.486 92.4015 137.966C92.8774 135.512 93.4161 132.73 95.3669 129.044C96.6519 126.618 98.0805 125.079 99.7343 123.296C101.661 121.22 103.797 118.918 106.195 114.691C106.113 116.299 106.765 117.905 107.869 119.93C109.364 122.672 108.392 127.383 108.2 127.957L108.71 128.127C108.921 127.493 109.95 122.622 108.34 119.673C106.788 116.829 106.195 114.969 107.261 112.707Z" fill="#2C9141"/>
<path d="M164.265 30.0608H124.231V41.2388H164.265V30.0608Z" fill="#2C9141"/>
<path d="M127.995 49.8953H160.606" stroke="#2C9141" stroke-miterlimit="10"/>
<path d="M134.776 54.7185H160.606" stroke="#2C9141" stroke-miterlimit="10"/>
<path d="M126.151 63.8311H161.804" stroke="#2C9141" stroke-miterlimit="10"/>
<path d="M131.876 107.231H163.605" stroke="#2C9141" stroke-miterlimit="10"/>
<path d="M138.51 111.788H161.805" stroke="#2C9141" stroke-miterlimit="10"/>
<path d="M132.775 117.542H161.804" stroke="#2C9141" stroke-miterlimit="10"/>
</svg>
