<svg width="38" height="38" viewBox="0 0 38 38" fill="none" xmlns="http://www.w3.org/2000/svg">
<circle cx="19" cy="19" r="19" fill="#FFF0C2"/>
<mask id="mask0_26_2872" style="mask-type:alpha" maskUnits="userSpaceOnUse" x="7" y="7" width="24" height="24">
<rect x="7" y="7" width="24" height="24" fill="#D9D9D9"/>
</mask>
<g mask="url(#mask0_26_2872)">
<path d="M12.85 24.1C13.7 23.45 14.65 22.9375 15.7 22.5625C16.75 22.1875 17.85 22 19 22C20.15 22 21.25 22.1875 22.3 22.5625C23.35 22.9375 24.3 23.45 25.15 24.1C25.7333 23.4167 26.1875 22.6417 26.5125 21.775C26.8375 20.9083 27 19.9833 27 19C27 16.7833 26.2208 14.8958 24.6625 13.3375C23.1042 11.7792 21.2167 11 19 11C16.7833 11 14.8958 11.7792 13.3375 13.3375C11.7792 14.8958 11 16.7833 11 19C11 19.9833 11.1625 20.9083 11.4875 21.775C11.8125 22.6417 12.2667 23.4167 12.85 24.1ZM19 20C18.0167 20 17.1875 19.6625 16.5125 18.9875C15.8375 18.3125 15.5 17.4833 15.5 16.5C15.5 15.5167 15.8375 14.6875 16.5125 14.0125C17.1875 13.3375 18.0167 13 19 13C19.9833 13 20.8125 13.3375 21.4875 14.0125C22.1625 14.6875 22.5 15.5167 22.5 16.5C22.5 17.4833 22.1625 18.3125 21.4875 18.9875C20.8125 19.6625 19.9833 20 19 20ZM19 29C17.6167 29 16.3167 28.7375 15.1 28.2125C13.8833 27.6875 12.825 26.975 11.925 26.075C11.025 25.175 10.3125 24.1167 9.7875 22.9C9.2625 21.6833 9 20.3833 9 19C9 17.6167 9.2625 16.3167 9.7875 15.1C10.3125 13.8833 11.025 12.825 11.925 11.925C12.825 11.025 13.8833 10.3125 15.1 9.7875C16.3167 9.2625 17.6167 9 19 9C20.3833 9 21.6833 9.2625 22.9 9.7875C24.1167 10.3125 25.175 11.025 26.075 11.925C26.975 12.825 27.6875 13.8833 28.2125 15.1C28.7375 16.3167 29 17.6167 29 19C29 20.3833 28.7375 21.6833 28.2125 22.9C27.6875 24.1167 26.975 25.175 26.075 26.075C25.175 26.975 24.1167 27.6875 22.9 28.2125C21.6833 28.7375 20.3833 29 19 29ZM19 27C19.8833 27 20.7167 26.8708 21.5 26.6125C22.2833 26.3542 23 25.9833 23.65 25.5C23 25.0167 22.2833 24.6458 21.5 24.3875C20.7167 24.1292 19.8833 24 19 24C18.1167 24 17.2833 24.1292 16.5 24.3875C15.7167 24.6458 15 25.0167 14.35 25.5C15 25.9833 15.7167 26.3542 16.5 26.6125C17.2833 26.8708 18.1167 27 19 27ZM19 18C19.4333 18 19.7917 17.8583 20.075 17.575C20.3583 17.2917 20.5 16.9333 20.5 16.5C20.5 16.0667 20.3583 15.7083 20.075 15.425C19.7917 15.1417 19.4333 15 19 15C18.5667 15 18.2083 15.1417 17.925 15.425C17.6417 15.7083 17.5 16.0667 17.5 16.5C17.5 16.9333 17.6417 17.2917 17.925 17.575C18.2083 17.8583 18.5667 18 19 18Z" fill="#1C3922"/>
</g>
</svg>
