<svg width="424" height="637" viewBox="0 0 424 637" fill="none" xmlns="http://www.w3.org/2000/svg">
<g clip-path="url(#clip0_59_1113)">
<path d="M-442.266 635.724C-442.266 635.724 -593.835 605.754 -601.562 499.877C-610.457 378.015 -480.52 374.705 -506.9 288.339C-546.966 157.169 -481.873 91.6123 -367.115 96.6774C-270.35 100.948 -188.722 176.708 -136.954 111.581C-81.1225 41.3417 23.3135 -10.5561 126.662 32.9482C230.01 76.4524 214.784 217.822 286.259 247.86C357.733 277.898 435.136 357.126 422.669 466.725C410.973 569.55 316.119 637.866 228.225 636.83C185.152 636.321 17.9727 637.397 -132.267 636.83C-288.607 636.24 -442.266 635.724 -442.266 635.724Z" fill="#19C43D" fill-opacity="0.2"/>
<path d="M146.609 570.862L136.493 612.1L163.325 614.559L172.738 573.975L146.609 570.862Z" fill="#F1A87A"/>
<path d="M131.007 603.97L173.376 606.511L168.227 636.701L96 636.345L123.517 620.826L131.007 603.97Z" fill="#26442C" stroke="#12120E" stroke-miterlimit="10"/>
<path d="M221.602 571.672L221.195 614.131L247.879 610.382L247.749 568.72L221.602 571.672Z" fill="#F1A87A"/>
<path d="M212.937 605.409L254.2 606.327L257.31 636.7L185.083 636.345L212.599 620.826L212.937 605.409Z" fill="#26442C" stroke="#12120E" stroke-miterlimit="10"/>
<path d="M208.296 421.733L181.243 585.667L124.602 581.104L163.599 385.481H215.648L208.296 421.733Z" fill="#22602F"/>
<path d="M208.077 422.932L181.243 585.667L124.602 581.104" stroke="#010001" stroke-miterlimit="10" stroke-linecap="round"/>
<path d="M191.128 416.276L199.949 417.04L205.186 487.477" stroke="#3A4A36" stroke-width="0.25" stroke-miterlimit="10"/>
<path d="M191.128 416.276L199.949 417.04L208.076 582.938L266.822 582.133L242.268 399.45L239.632 382.178L179.223 365.673L191.128 416.276Z" fill="#22602F"/>
<path d="M191.128 416.276L199.949 417.04L208.076 582.938L266.821 582.133" stroke="#010001" stroke-miterlimit="10" stroke-linecap="round"/>
<path d="M235.248 279.346C213.059 263.155 202.255 265.893 202.255 265.893C188.289 263.947 165.131 284.082 161.702 286.654C158.273 289.227 144.208 319.888 140.671 333.493C137.133 347.099 148.39 365.671 148.39 365.671C148.39 365.671 258.052 368.77 261.912 361.239C265.767 353.709 257.167 295.341 235.248 279.346Z" fill="#FFF0C2"/>
<path d="M241.384 401.217C243.056 391.59 242.331 376.377 242.331 365.671C242.331 312.23 229.728 267.943 201.917 266.671C184.897 265.894 162.472 309.492 159.319 362.755C158.687 373.441 157.005 390.98 158.678 400.607L241.384 401.217Z" fill="#19C43D" fill-opacity="0.5"/>
<path d="M162.158 317.121C145.725 368.906 125.554 528.133 125.554 528.133L182.688 534.212L189.357 298.33L191.159 268.221C191.159 268.221 173.899 280.118 162.158 317.121Z" fill="#FFF0C2"/>
<path d="M187.941 272.582C186.038 277.913 178.976 298.379 178.976 298.379L183.357 299.398V299.594L176.594 304.245L185.047 382.943" stroke="#12120E" stroke-miterlimit="10" stroke-linecap="round"/>
<path d="M148.386 409.398L173.899 407.256" stroke="#12120E" stroke-miterlimit="10" stroke-linecap="round"/>
<path d="M162.158 317.121C145.725 368.906 125.554 528.133 125.554 528.133L182.688 534.212" stroke="#12120E" stroke-miterlimit="10" stroke-linecap="round"/>
<path d="M243.395 317.121C259.829 368.906 279.999 528.133 279.999 528.133L222.865 534.212L216.196 298.33L214.394 268.221C214.394 268.221 231.653 280.118 243.395 317.121Z" fill="#FFF0C2"/>
<path d="M217.612 272.582C219.515 277.913 226.577 298.379 226.577 298.379L222.196 299.398V299.594L228.96 304.245L221.898 388.145" stroke="#12120E" stroke-miterlimit="10" stroke-linecap="round"/>
<path d="M257.168 409.398L231.653 407.256" stroke="#12120E" stroke-miterlimit="10" stroke-linecap="round"/>
<path d="M243.395 317.121C259.829 368.906 279.999 528.133 279.999 528.133L222.865 534.212" stroke="#12120E" stroke-miterlimit="10" stroke-linecap="round"/>
<path d="M161.143 344.758C161.143 344.758 172.345 327.918 175.723 327.762C179.101 327.606 175.453 333.817 175.453 333.817C175.453 333.817 185.476 329.46 189.282 329.981C193.088 330.502 194.334 349.636 194.334 349.636C194.334 349.636 175.664 356.771 167.04 356.228C160.032 355.79 161.143 344.758 161.143 344.758Z" fill="#F1A87A"/>
<path d="M175.451 333.817L167.2 320.935L172.999 317.121L180.278 331.935L175.451 333.817Z" fill="#2C9141"/>
<path d="M151.373 339.743L153.126 322.291L178.979 290.407L181.529 273.834C164.738 282.653 139.419 300.657 125.588 333.493C103.684 385.492 132.304 386.108 138.736 385.478C145.168 384.848 176.951 368.083 176.951 368.083L166.338 333.493L151.373 339.743Z" fill="#FFF0C2"/>
<path d="M125.59 333.495C103.686 385.494 132.306 386.11 138.738 385.48C145.17 384.85 176.953 368.085 176.953 368.085L166.339 333.495L132.628 347.571" stroke="#12120E" stroke-miterlimit="10" stroke-linecap="round"/>
<path d="M227.744 389.722H191.422C185.663 389.722 180.994 385.053 180.994 379.294V324.47C180.994 318.712 185.663 314.042 191.422 314.042H227.744C233.503 314.042 238.172 318.712 238.172 324.47V379.294C238.172 385.053 233.503 389.722 227.744 389.722Z" fill="#1C3922"/>
<path d="M219.823 320.06H199.343C197.191 320.06 195.445 318.315 195.445 316.163V315.82C195.445 313.668 197.191 311.923 199.343 311.923H219.823C221.975 311.923 223.72 313.668 223.72 315.82V316.163C223.72 318.315 221.977 320.06 219.823 320.06Z" fill="#2C9141"/>
<path d="M209.583 306.106C206.11 306.106 203.297 308.922 203.297 312.392C203.297 315.863 206.112 318.678 209.583 318.678C213.053 318.678 215.869 315.863 215.869 312.392C215.869 308.922 213.055 306.106 209.583 306.106ZM209.583 315.826C207.688 315.826 206.15 314.29 206.15 312.392C206.15 310.497 207.688 308.959 209.583 308.959C211.478 308.959 213.016 310.497 213.016 312.392C213.016 314.29 211.48 315.826 209.583 315.826Z" fill="#2C9141"/>
<path d="M238.172 342.221V347.794C238.172 347.794 226.63 341.824 224.038 342.241C221.446 342.659 220.423 344.772 222.589 346.797C222.589 346.797 219.389 345.96 218.477 348.029C217.565 350.098 219.182 351.849 221.255 352.99C221.255 352.99 218.337 351.964 217.898 353.89C217.46 355.817 222.601 358.862 222.601 358.862C222.601 358.862 220.263 357.077 219.48 358.175C218.696 359.27 219.762 362.208 228.048 366.093C236.334 369.976 243.04 372.628 243.04 372.628L254.141 354.672L238.172 342.221Z" fill="#F1A87A"/>
<path d="M221.213 358.408L230.524 363.114" stroke="#12120E" stroke-miterlimit="10" stroke-linecap="round"/>
<path d="M219.322 351.928L232.754 359.329" stroke="#12120E" stroke-miterlimit="10" stroke-linecap="round"/>
<path d="M222.121 346.458L236.26 354.497" stroke="#12120E" stroke-miterlimit="10" stroke-linecap="round"/>
<path d="M280.519 329.924C265.755 300.308 240.282 279.368 222.867 273.293L226.638 278.989C233.315 284.51 239.986 291.32 243.794 298.77C251.896 314.613 258.204 336.985 260.02 343.753C256.508 342.827 253.961 342.221 253.961 342.221L241.388 378.097C241.388 378.097 257.75 385.802 264.484 388.143C270.434 390.212 284.773 391.894 290.597 381.828C295.444 373.447 292.956 354.876 280.519 329.924Z" fill="#FFF0C2"/>
<path d="M280.519 329.924C307.897 384.85 284.582 395.497 264.482 388.143C257.785 385.693 241.386 378.097 241.386 378.097L253.959 342.221C253.959 342.221 268.176 345.593 275.899 348.671" stroke="#12120E" stroke-miterlimit="10" stroke-linecap="round"/>
<path d="M214.394 270.873C214.394 275.149 209.192 278.617 202.778 278.617C196.362 278.617 191.161 275.151 191.161 270.873C191.161 266.596 196.364 263.13 202.778 263.13C209.192 263.128 214.394 266.594 214.394 270.873Z" fill="#22602F"/>
<path d="M195.832 265.102C195.832 265.102 173.044 269.893 168.381 255.904C163.801 242.162 173.445 235.963 173.445 235.963C173.445 235.963 175.04 232.796 175.541 226.474C176.043 220.153 186.818 205.656 200.8 209.701C200.8 209.701 210.276 207.129 218.244 213.721C226.212 220.313 229.775 232.026 229.134 235.283C228.49 238.541 235.082 243.295 235.242 251.174C235.402 259.053 232.484 267.266 208.783 265.104H195.832V265.102Z" fill="#12120E"/>
<path d="M201.812 220.783L192.529 220.311C186.358 219.997 181.016 225.492 180.658 232.518L179.928 246.908C179.571 253.936 184.329 259.942 190.502 260.254L193.679 260.415V265.317C193.679 269.382 196.973 272.677 201.036 272.677H203.885C207.95 272.677 211.243 269.382 211.243 265.317V258.706L211.632 251.044C211.656 250.59 211.618 250.148 211.539 249.717C211.593 249.322 211.634 248.924 211.654 248.519L212.384 234.127C212.742 227.102 207.984 221.097 201.812 220.783Z" fill="#F1A87A"/>
<path d="M198.997 238.164C198.938 239.319 197.955 240.21 196.798 240.15C195.643 240.091 194.753 239.108 194.812 237.951C194.871 236.796 195.854 235.906 197.011 235.965C198.166 236.024 199.056 237.007 198.997 238.164Z" fill="#12120E"/>
<path d="M185.312 237.161C185.263 238.148 184.421 238.906 183.434 238.857C182.447 238.808 181.689 237.966 181.739 236.979C181.788 235.992 182.629 235.234 183.616 235.284C184.603 235.335 185.363 236.176 185.312 237.161Z" fill="#12120E"/>
<path d="M186.875 245.826C186.875 245.826 187.772 248.943 189.985 249.267C192.198 249.591 194.065 247.216 194.283 245.299L186.875 245.826Z" fill="#FFF0C2"/>
<path d="M206.243 246.229C206.096 249.101 203.65 251.312 200.778 251.166C197.905 251.02 195.694 248.574 195.84 245.699C195.986 242.827 198.432 240.616 201.305 240.762C204.177 240.908 206.389 243.354 206.243 246.229Z" fill="#EC955A"/>
<path d="M181.134 241.461C180.819 241.445 180.509 241.471 180.21 241.526L179.936 246.922C179.895 247.727 179.885 248.509 180.011 249.277C180.226 249.324 180.505 249.37 180.732 249.379C182.917 249.49 184.781 247.808 184.891 245.621C185.004 243.435 183.32 241.573 181.134 241.461Z" fill="#EC955A"/>
<path d="M223.574 244.693C223.369 248.742 219.892 251.855 215.812 251.648C211.729 251.441 208.588 247.99 208.793 243.943C208.999 239.893 212.475 236.78 216.556 236.987C220.637 237.195 223.78 240.646 223.574 244.693Z" fill="#F1A87A"/>
<path d="M212.136 245.084C212.136 245.084 212.063 240.087 217.148 240.9" stroke="#12120E" stroke-miterlimit="10" stroke-linecap="round"/>
<path d="M182.301 233.566C183.156 233.264 184.044 233.056 184.947 232.948" stroke="#12120E" stroke-miterlimit="10" stroke-linecap="round"/>
<path d="M195.558 232.596C197.337 232.772 199.098 233.133 200.8 233.676" stroke="#12120E" stroke-miterlimit="10" stroke-linecap="round"/>
<path d="M189.947 235.576C189.254 237.38 188.443 239.139 187.525 240.841C188.245 241.08 189.469 241.34 190.393 241.496" stroke="#12120E" stroke-miterlimit="10" stroke-linecap="round"/>
<path d="M212.675 220.291C207.778 214.69 182.779 207.723 178.955 232.312C178.955 232.312 186.603 229.967 191.112 222.692C191.112 222.692 191.904 228.216 205.415 234.302C206.608 234.839 207.686 235.258 208.675 235.584L209.35 241.498L213.498 236.427C220.868 236.051 216.578 224.755 212.675 220.291Z" fill="#12120E"/>
<path d="M117.384 128.456C130.358 115.481 130.358 94.4454 117.384 81.4709C104.409 68.4963 83.3731 68.4963 70.3985 81.4708C57.424 94.4454 57.424 115.481 70.3985 128.456C83.3731 141.43 104.409 141.43 117.384 128.456Z" fill="#2C9141"/>
<path d="M116.708 99.972H98.8841V82.1468C98.8841 79.3912 96.6496 77.1567 93.894 77.1567C91.1373 77.1567 88.904 79.3912 88.904 82.1468V99.972H71.0799C68.3232 99.972 66.0898 102.206 66.0898 104.962C66.0898 107.718 68.3243 109.952 71.0799 109.952H88.904V127.777C88.904 130.533 91.1385 132.767 93.894 132.767C96.6496 132.767 98.8841 130.533 98.8841 127.777V109.952H116.708C119.464 109.952 121.698 107.718 121.698 104.962C121.699 102.206 119.465 99.972 116.708 99.972Z" fill="#FFF0C2"/>
<path d="M82.928 601.419C90.6434 594.527 91.3109 582.685 84.419 574.97C77.5271 567.255 65.6855 566.587 57.97 573.479C50.2546 580.371 49.587 592.213 56.479 599.928C63.3709 607.643 75.2126 608.311 82.928 601.419Z" fill="#2C9141"/>
<path d="M83.2902 584.614H73.2405V574.564C73.2405 573.011 71.9809 571.751 70.4275 571.751C68.8731 571.751 67.6134 573.011 67.6134 574.564V584.614H57.5637C56.0092 584.614 54.7496 585.873 54.7496 587.427C54.7496 588.98 56.0092 590.24 57.5637 590.24H67.6134V600.289C67.6134 601.843 68.8731 603.102 70.4275 603.102C71.9809 603.102 73.2405 601.843 73.2405 600.289V590.24H83.2902C84.8447 590.24 86.1043 588.98 86.1043 587.427C86.1043 585.873 84.8447 584.614 83.2902 584.614Z" fill="#FFF0C2"/>
<path d="M362.138 444.277C377.127 444.277 389.277 432.127 389.277 417.139C389.277 402.15 377.127 390 362.138 390C347.15 390 335 402.15 335 417.139C335 432.127 347.15 444.277 362.138 444.277Z" stroke="#2C9141" stroke-miterlimit="10"/>
<path d="M380.774 413.063H366.214V398.502C366.214 396.251 364.39 394.426 362.139 394.426C359.887 394.426 358.063 396.251 358.063 398.502V413.062H343.503C341.252 413.062 339.427 414.886 339.427 417.138C339.427 419.389 341.252 421.213 343.503 421.213H358.063V435.773C358.063 438.024 359.887 439.849 362.139 439.849C364.39 439.849 366.214 438.024 366.214 435.773V421.213H380.774C383.025 421.213 384.85 419.389 384.85 417.138C384.851 414.888 383.025 413.063 380.774 413.063Z" fill="#2C9141"/>
<path d="M203.352 68.074H195.481V60.2036C195.481 58.987 194.494 58 193.278 58C192.061 58 191.074 58.987 191.074 60.2036V68.074H183.204C181.987 68.074 181 69.061 181 70.2776C181 71.4942 181.987 72.4812 183.204 72.4812H191.074V80.3516C191.074 81.5682 192.061 82.5552 193.278 82.5552C194.494 82.5552 195.481 81.5682 195.481 80.3516V72.4812H203.352C204.568 72.4812 205.555 71.4942 205.555 70.2776C205.555 69.0599 204.569 68.074 203.352 68.074Z" fill="#2C9141"/>
<path d="M31.5092 370.351C37.8655 370.351 43.0184 365.199 43.0184 358.842C43.0184 352.486 37.8655 347.333 31.5092 347.333C25.1528 347.333 20 352.486 20 358.842C20 365.199 25.1528 370.351 31.5092 370.351Z" stroke="#2C9141" stroke-miterlimit="10"/>
<path d="M327.509 583.46C333.866 583.46 339.018 578.307 339.018 571.951C339.018 565.594 333.866 560.441 327.509 560.441C321.153 560.441 316 565.594 316 571.951C316 578.307 321.153 583.46 327.509 583.46Z" stroke="#2C9141" stroke-miterlimit="10"/>
<path d="M300.509 279.46C306.866 279.46 312.018 274.307 312.018 267.951C312.018 261.594 306.866 256.441 300.509 256.441C294.153 256.441 289 261.594 289 267.951C289 274.307 294.153 279.46 300.509 279.46Z" stroke="#2C9141" stroke-miterlimit="10"/>
<path d="M64.0739 388.968V400.985" stroke="#2C9141" stroke-miterlimit="10" stroke-linecap="round"/>
<path d="M70.0819 394.976H58.0659" stroke="#2C9141" stroke-miterlimit="10" stroke-linecap="round"/>
<path d="M360.074 602.077V614.094" stroke="#2C9141" stroke-miterlimit="10" stroke-linecap="round"/>
<path d="M366.082 608.085H354.066" stroke="#2C9141" stroke-miterlimit="10" stroke-linecap="round"/>
<path d="M333.074 298.077V310.094" stroke="#2C9141" stroke-miterlimit="10" stroke-linecap="round"/>
<path d="M339.082 304.085H327.066" stroke="#2C9141" stroke-miterlimit="10" stroke-linecap="round"/>
<path d="M89.5277 349.335C91.3069 349.335 92.7492 347.892 92.7492 346.113C92.7492 344.334 91.3069 342.892 89.5277 342.892C87.7485 342.892 86.3062 344.334 86.3062 346.113C86.3062 347.892 87.7485 349.335 89.5277 349.335Z" stroke="#2C9141" stroke-miterlimit="10"/>
<path d="M385.528 562.443C387.307 562.443 388.749 561.001 388.749 559.221C388.749 557.442 387.307 556 385.528 556C383.749 556 382.306 557.442 382.306 559.221C382.306 561.001 383.749 562.443 385.528 562.443Z" stroke="#2C9141" stroke-miterlimit="10"/>
<path d="M358.528 258.443C360.307 258.443 361.749 257.001 361.749 255.221C361.749 253.442 360.307 252 358.528 252C356.749 252 355.306 253.442 355.306 255.221C355.306 257.001 356.749 258.443 358.528 258.443Z" stroke="#2C9141" stroke-miterlimit="10"/>
</g>
<defs>
<clipPath id="clip0_59_1113">
<rect width="424" height="637" fill="white"/>
</clipPath>
</defs>
</svg>
