<svg width="40" height="40" viewBox="0 0 40 40" fill="none" xmlns="http://www.w3.org/2000/svg">
<path d="M19.5 30C17.9667 30 16.6667 29.4667 15.6 28.4C14.5333 27.3333 14 26.0333 14 24.5V14C14 12.9 14.3917 11.9583 15.175 11.175C15.9583 10.3917 16.9 10 18 10C19.1 10 20.0417 10.3917 20.825 11.175C21.6083 11.9583 22 12.9 22 14V23.5C22 24.2 21.7583 24.7917 21.275 25.275C20.7917 25.7583 20.2 26 19.5 26C18.8 26 18.2083 25.7583 17.725 25.275C17.2417 24.7917 17 24.2 17 23.5V14H18.5V23.5C18.5 23.7833 18.5958 24.0208 18.7875 24.2125C18.9792 24.4042 19.2167 24.5 19.5 24.5C19.7833 24.5 20.0208 24.4042 20.2125 24.2125C20.4042 24.0208 20.5 23.7833 20.5 23.5V14C20.5 13.3 20.2583 12.7083 19.775 12.225C19.2917 11.7417 18.7 11.5 18 11.5C17.3 11.5 16.7083 11.7417 16.225 12.225C15.7417 12.7083 15.5 13.3 15.5 14V24.5C15.5 25.6 15.8917 26.5417 16.675 27.325C17.4583 28.1083 18.4 28.5 19.5 28.5C20.6 28.5 21.5417 28.1083 22.325 27.325C23.1083 26.5417 23.5 25.6 23.5 24.5V14H25V24.5C25 26.0333 24.4667 27.3333 23.4 28.4C22.3333 29.4667 21.0333 30 19.5 30Z" fill="#1C3922"/>
</svg>
