<svg width="215" height="181" viewBox="0 0 215 181" fill="none" xmlns="http://www.w3.org/2000/svg">
<path d="M33.4725 180.732C33.4725 180.732 1.711 174.448 0.0916952 152.248C-1.77208 126.697 25.4564 126.003 19.9285 107.894C11.5325 80.3902 25.1728 66.6445 49.2205 67.7066C69.4977 68.6021 86.6031 84.4871 97.4512 70.8315C109.151 56.1039 131.035 45.2221 152.692 54.344C174.349 63.4658 171.159 93.1077 186.136 99.4061C201.114 105.704 217.333 122.317 214.721 145.297C212.27 166.857 192.393 181.181 173.975 180.964C164.949 180.858 129.916 181.083 98.4334 180.964C65.672 180.841 33.4725 180.732 33.4725 180.732Z" fill="#19C43D" fill-opacity="0.2"/>
<path d="M35.9922 44.1886C30.4774 46.1579 27.6063 52.2239 29.5745 57.7356C31.5426 63.2473 37.6098 66.1216 43.1214 64.1535C48.6331 62.1853 51.5075 56.1181 49.5394 50.6064C47.5712 45.0947 41.507 42.2193 35.9922 44.1886ZM41.5037 59.6232C38.4939 60.6979 35.1808 59.1308 34.1049 56.1179C33.0301 53.1081 34.6001 49.7936 37.6099 48.7189C40.6197 47.6441 43.9342 49.2144 45.009 52.2241C46.0849 55.2371 44.5166 58.5473 41.5037 59.6232Z" fill="#2C9141"/>
<path d="M58.5944 36.1178C53.0796 38.0871 50.2085 44.1531 52.1767 49.6648C54.1448 55.1765 60.2119 58.0508 65.7236 56.0827C71.2353 54.1145 74.1097 48.0473 72.1415 42.5356C70.1734 37.0239 64.1092 34.1485 58.5944 36.1178ZM64.1059 51.5524C61.0961 52.6271 57.7829 51.06 56.707 48.0471C55.6323 45.0373 57.2023 41.7228 60.2121 40.6481C63.2219 39.5733 66.5364 41.1436 67.6112 44.1533C68.687 47.1663 67.1188 50.4765 64.1059 51.5524Z" fill="#2C9141"/>
<path d="M81.1966 28.0468C75.6818 30.016 72.8107 36.0821 74.7788 41.5938C76.747 47.1054 82.8141 49.9798 88.3258 48.0116C93.8375 46.0435 96.7119 39.9762 94.7437 34.4646C92.7756 28.9529 86.7114 26.0775 81.1966 28.0468ZM86.7081 43.4813C83.6983 44.5561 80.3851 42.9889 79.3092 39.976C78.2345 36.9662 79.8045 33.6518 82.8143 32.577C85.8241 31.5023 89.1386 33.0725 90.2133 36.0823C91.2892 39.0952 89.721 42.4055 86.7081 43.4813Z" fill="#2C9141"/>
<path d="M103.799 19.9757C98.2841 21.945 95.413 28.011 97.3811 33.5227C99.3493 39.0344 105.416 41.9087 110.928 39.9406C116.44 37.9724 119.314 31.9052 117.346 26.3935C115.378 20.8818 109.314 18.0064 103.799 19.9757ZM109.31 35.4103C106.301 36.4851 102.987 34.9179 101.912 31.905C100.837 28.8952 102.407 25.5808 105.417 24.506C108.426 23.4312 111.741 25.0015 112.816 28.0112C113.891 31.0242 112.323 34.3344 109.31 35.4103Z" fill="#2C9141"/>
<path d="M126.401 11.9049C120.886 13.8742 118.015 19.9402 119.983 25.4519C121.951 30.9636 128.019 33.8379 133.53 31.8698C139.042 29.9016 141.916 23.8344 139.948 18.3227C137.98 12.811 131.916 9.93564 126.401 11.9049ZM131.913 27.3395C128.903 28.4143 125.59 26.8471 124.514 23.8342C123.439 20.8244 125.009 17.51 128.019 16.4352C131.029 15.3604 134.343 16.9307 135.418 19.9404C136.494 22.9534 134.925 26.2636 131.913 27.3395Z" fill="#2C9141"/>
<path d="M177.662 136.418L82.54 170.385C75.0711 173.052 67.6736 173.616 61.7619 172.396C55.8399 171.175 51.4955 168.189 49.9389 163.83L18.756 76.5042C17.1994 72.145 18.67 67.0827 22.4785 62.3862C26.2805 57.6979 32.3622 53.4487 39.8311 50.7817L134.953 16.8149C142.422 14.1478 149.819 13.5837 155.731 14.8034C161.653 16.0252 165.997 19.0111 167.554 23.3703L198.737 110.696C200.293 115.055 198.823 120.117 195.014 124.814C191.212 129.502 185.131 133.751 177.662 136.418Z" stroke="#22602F"/>
<g opacity="0.9">
<rect x="31.1877" y="83.0688" width="14" height="14" transform="rotate(-19.651 31.1877 83.0688)" fill="#22602F"/>
<rect x="50.9647" y="76.0068" width="14" height="14" transform="rotate(-19.651 50.9647 76.0068)" fill="#22602F"/>
<rect x="70.7416" y="68.9446" width="14" height="14" transform="rotate(-19.651 70.7416 68.9446)" fill="#22602F"/>
<rect x="90.5186" y="61.8826" width="14" height="14" transform="rotate(-19.651 90.5186 61.8826)" fill="#22602F"/>
<rect x="110.295" y="54.8206" width="14" height="14" transform="rotate(-19.651 110.295 54.8206)" fill="#22602F"/>
<rect x="130.072" y="47.7583" width="14" height="14" transform="rotate(-19.651 130.072 47.7583)" fill="#22602F"/>
<rect x="149.849" y="40.6963" width="14" height="14" transform="rotate(-19.651 149.849 40.6963)" fill="#22602F"/>
<rect x="37.5773" y="100.962" width="14" height="14" transform="rotate(-19.651 37.5773 100.962)" fill="#22602F"/>
<rect x="57.3542" y="93.9001" width="14" height="14" transform="rotate(-19.651 57.3542 93.9001)" fill="#22602F"/>
<rect x="77.1311" y="86.8379" width="14" height="14" transform="rotate(-19.651 77.1311 86.8379)" fill="#22602F"/>
<rect x="96.9081" y="79.7759" width="14" height="14" transform="rotate(-19.651 96.9081 79.7759)" fill="#22602F"/>
<rect x="116.685" y="72.7139" width="14" height="14" transform="rotate(-19.651 116.685 72.7139)" fill="#22602F"/>
<rect x="136.462" y="65.6516" width="14" height="14" transform="rotate(-19.651 136.462 65.6516)" fill="#22602F"/>
<rect x="156.239" y="58.5896" width="14" height="14" transform="rotate(-19.651 156.239 58.5896)" fill="#22602F"/>
<rect x="43.9668" y="118.856" width="14" height="14" transform="rotate(-19.651 43.9668 118.856)" fill="#22602F"/>
<rect x="63.7438" y="111.794" width="14" height="14" transform="rotate(-19.651 63.7438 111.794)" fill="#22602F"/>
<rect x="83.5206" y="104.731" width="14" height="14" transform="rotate(-19.651 83.5206 104.731)" fill="#22602F"/>
<rect x="103.298" y="97.6694" width="14" height="14" transform="rotate(-19.651 103.298 97.6694)" fill="#22602F"/>
<rect x="123.074" y="90.6074" width="14" height="14" transform="rotate(-19.651 123.074 90.6074)" fill="#22602F"/>
<rect x="142.851" y="83.5452" width="14" height="14" transform="rotate(-19.651 142.851 83.5452)" fill="#22602F"/>
<rect x="162.628" y="76.4832" width="14" height="14" transform="rotate(-19.651 162.628 76.4832)" fill="#22602F"/>
<rect x="50.3563" y="136.749" width="14" height="14" transform="rotate(-19.651 50.3563 136.749)" fill="#22602F"/>
<rect x="70.1333" y="129.687" width="14" height="14" transform="rotate(-19.651 70.1333 129.687)" fill="#22602F"/>
<rect x="89.9102" y="122.625" width="14" height="14" transform="rotate(-19.651 89.9102 122.625)" fill="#22602F"/>
<rect x="109.687" y="115.563" width="14" height="14" transform="rotate(-19.651 109.687 115.563)" fill="#22602F"/>
<rect x="129.464" y="108.501" width="14" height="14" transform="rotate(-19.651 129.464 108.501)" fill="#22602F"/>
<rect x="149.241" y="101.438" width="14" height="14" transform="rotate(-19.651 149.241 101.438)" fill="#22602F"/>
<rect x="169.018" y="94.3765" width="14" height="14" transform="rotate(-19.651 169.018 94.3765)" fill="#22602F"/>
</g>
</svg>
