<svg width="215" height="181" viewBox="0 0 215 181" fill="none" xmlns="http://www.w3.org/2000/svg">
<path d="M33.4725 180.732C33.4725 180.732 1.711 174.448 0.0916952 152.248C-1.77208 126.697 25.4564 126.003 19.9285 107.894C11.5325 80.3902 25.1728 66.6445 49.2205 67.7066C69.4977 68.6021 86.6031 84.4871 97.4512 70.8315C109.151 56.1039 131.035 45.2221 152.692 54.344C174.349 63.4658 171.159 93.1077 186.136 99.4061C201.114 105.704 217.333 122.317 214.721 145.297C212.27 166.857 192.393 181.181 173.975 180.964C164.949 180.858 129.916 181.083 98.4334 180.964C65.672 180.841 33.4725 180.732 33.4725 180.732Z" fill="#19C43D" fill-opacity="0.2"/>
<path d="M107.537 165.575C134.126 165.575 155.681 163.005 155.681 159.836C155.681 156.666 134.126 154.097 107.537 154.097C80.948 154.097 59.3932 156.666 59.3932 159.836C59.3932 163.005 80.948 165.575 107.537 165.575Z" fill="#2C9141" fill-opacity="0.5"/>
<path d="M107.537 147.403C115.501 147.403 121.957 140.947 121.957 132.984C121.957 125.02 115.501 118.564 107.537 118.564C99.5733 118.564 93.1174 125.02 93.1174 132.984C93.1174 140.947 99.5733 147.403 107.537 147.403Z" fill="#D1F3D8"/>
<path d="M121.957 132.984C121.957 140.949 115.502 147.403 107.537 147.403C101.017 147.403 95.5093 143.077 93.7255 137.137C96.3428 139.798 99.9823 141.447 104.01 141.447C111.976 141.447 118.43 134.993 118.43 127.028C118.43 125.583 118.217 124.191 117.822 122.874C120.377 125.476 121.957 129.047 121.957 132.984Z" fill="#387044"/>
<path d="M170.074 120.617V125.805C170.074 128.558 167.842 130.789 165.09 130.789H49.984C47.2318 130.789 45 128.558 45 125.805V120.617C45 118.614 46.2007 116.802 48.0468 116.025C51.3977 114.608 54.1627 112.26 56.0903 109.354C58.0183 106.448 59.1059 102.985 59.1059 99.3482V74.327C59.1059 50.2464 76.7855 29.8835 99.8035 26.0967C99.7346 25.686 99.7002 25.2661 99.7002 24.8366C99.7002 20.5075 103.208 17 107.537 17C111.866 17 115.373 20.5078 115.373 24.8366C115.373 25.2597 115.339 25.6736 115.273 26.0778C125.548 27.7265 134.743 32.6076 141.783 39.6481C150.548 48.4125 155.968 60.5218 155.968 73.8947V99.3485C155.968 106.624 160.325 113.195 167.027 116.025C167.951 116.414 168.71 117.06 169.243 117.862C169.773 118.661 170.074 119.617 170.074 120.617Z" fill="#2C9141" fill-opacity="0.5"/>
<path d="M170.074 120.617V125.805C170.074 128.558 167.842 130.789 165.09 130.789H52.6393L96.7194 125.319C122.518 122.119 141.201 99.0695 138.884 73.177C137.151 53.7983 128.405 39.1593 109.653 26.7178C111.935 20.3261 107.24 18.2572 104.516 17.602C105.443 17.2165 106.465 17 107.537 17C111.867 17 115.374 20.5078 115.374 24.8366C115.374 25.2597 115.34 25.6736 115.274 26.0778C125.549 27.7265 134.743 32.6076 141.784 39.6481C150.548 48.4125 155.968 60.5218 155.968 73.8947V99.3485C155.968 106.624 160.326 113.195 167.027 116.025C167.952 116.414 168.711 117.06 169.244 117.862C169.773 118.661 170.074 119.617 170.074 120.617Z" fill="#387044"/>
<path d="M96.6221 33.1238C89.9406 34.7336 71.0841 41.7269 65.3789 69.9941C65.2501 70.6321 65.7367 71.2302 66.3877 71.2302H66.7129C67.0917 71.2302 67.4399 71.023 67.6187 70.6888C69.5859 67.0139 81.585 45.7455 97.9542 41.5059C98.9184 41.2563 99.5637 40.3511 99.49 39.3579L99.1658 34.9794C99.0717 33.7082 97.8618 32.825 96.6221 33.1238Z" fill="#387044"/>
</svg>
